<?xml version="1.0" encoding="UTF-8"?>
<svg width="293px" height="314px" viewBox="0 0 293 314" version="1.1" xmlns="http://www.w3.org/2000/svg" xmlns:xlink="http://www.w3.org/1999/xlink">
    <!-- Generator: Sketch 53.1 (72631) - https://sketchapp.com -->
    <title>Path</title>
    <desc>Created with Sketch.</desc>
    <g id="Page-1" stroke="none" stroke-width="1" fill="none" fill-rule="evenodd">
        <g id="moon" fill="#161C2D" fill-rule="nonzero">
            <path d="M290.198552,227.2104 C287.39561,223.7564 282.689178,222.479467 278.547517,223.965733 C266.938318,228.131467 254.345997,230.266667 241.084316,230.266667 C177.641609,230.266667 126.038194,178.6032 126.038194,115.133333 C126.038194,76.93 144.884841,41.3642667 176.449313,19.9704 C180.026202,17.5421333 181.741435,13.1670667 180.779231,8.95946667 C179.817027,4.75186667 176.365643,1.57 172.07756,0.942 C167.182871,0.230266667 162.309099,0 157.414409,0 C70.8997252,0 0.533333333,70.4197333 0.533333333,157 C0.533333333,243.580267 70.8997252,314 157.414409,314 C212.322786,314 262.27372,286.074933 290.993416,239.309867 C293.315256,235.520933 292.980576,230.685333 290.198552,227.2104 Z" id="Path"></path>
        </g>
    </g>
</svg>