<?xml version="1.0" encoding="UTF-8"?>
<svg width="512px" height="512px" viewBox="0 0 512 512" version="1.1" xmlns="http://www.w3.org/2000/svg" xmlns:xlink="http://www.w3.org/1999/xlink">
    <!-- Generator: Sketch 53.1 (72631) - https://sketchapp.com -->
    <title>sun(1)</title>
    <desc>Created with Sketch.</desc>
    <g id="Page-1" stroke="none" stroke-width="1" fill="none" fill-rule="evenodd">
        <g id="sun(1)" fill="#FFFFFF" fill-rule="nonzero">
            <path d="M50.087,239.304 L16.696,239.304 C7.473,239.304 0,246.777 0,256 C0,265.223 7.473,272.696 16.696,272.696 L50.087,272.696 C59.31,272.696 66.783,265.223 66.783,256 C66.783,246.777 59.31,239.304 50.087,239.304 Z" id="Path"></path>
            <path d="M495.304,239.304 L461.913,239.304 C452.69,239.304 445.217,246.777 445.217,256 C445.217,265.223 452.69,272.696 461.913,272.696 L495.304,272.696 C504.521,272.696 512,265.223 512,256 C512,246.777 504.521,239.304 495.304,239.304 Z" id="Path"></path>
            <path d="M256,445.217 C246.777,445.217 239.304,452.69 239.304,461.913 L239.304,495.304 C239.304,504.527 246.777,512 256,512 C265.223,512 272.696,504.527 272.696,495.304 L272.696,461.913 C272.696,452.69 265.223,445.217 256,445.217 Z" id="Path"></path>
            <path d="M256,0 C246.777,0 239.304,7.473 239.304,16.696 L239.304,50.087 C239.304,59.31 246.777,66.783 256,66.783 C265.223,66.783 272.696,59.31 272.696,50.087 L272.696,16.696 C272.696,7.473 265.223,0 256,0 Z" id="Path"></path>
            <path d="M390.108,454.898 L373.412,425.98 C368.808,418.002 358.619,415.251 350.608,419.872 C342.624,424.481 339.885,434.692 344.5,442.676 L361.196,471.594 C365.818,479.605 376.026,482.315 384,477.702 C391.984,473.092 394.723,462.881 390.108,454.898 Z" id="Path"></path>
            <path d="M167.5,69.326 L150.804,40.408 C146.201,32.424 136.005,29.69 128,34.3 C120.016,38.909 117.277,49.12 121.892,57.104 L138.588,86.022 C143.21,94.033 153.418,96.744 161.392,92.13 C169.375,87.521 172.114,77.31 167.5,69.326 Z" id="Path"></path>
            <path d="M471.592,361.196 L442.674,344.5 C434.69,339.885 424.478,342.625 419.87,350.608 C415.255,358.592 417.995,368.804 425.978,373.412 L454.896,390.108 C462.88,394.727 473.086,391.986 477.7,384 C482.315,376.016 479.576,365.804 471.592,361.196 Z" id="Path"></path>
            <path d="M86.022,138.587 L57.104,121.891 C49.115,117.276 38.914,120.027 34.3,127.999 C29.685,135.983 32.425,146.195 40.408,150.803 L69.326,167.5 C77.31,172.119 87.518,169.378 92.13,161.392 C96.745,153.407 94.005,143.195 86.022,138.587 Z" id="Path"></path>
            <path d="M477.7,128 C473.096,120.011 462.895,117.277 454.896,121.892 L425.978,138.588 C417.994,143.197 415.255,153.408 419.87,161.392 C424.492,169.403 434.7,172.114 442.674,167.5 L471.592,150.804 C479.576,146.195 482.315,135.984 477.7,128 Z" id="Path"></path>
            <path d="M92.129,350.609 C87.525,342.625 77.319,339.886 69.325,344.501 L40.407,361.197 C32.424,365.805 29.685,376.017 34.299,384.001 C38.921,392.012 49.13,394.723 57.103,390.109 L86.021,373.413 C94.004,368.804 96.744,358.593 92.129,350.609 Z" id="Path"></path>
            <path d="M384,34.3 C376.022,29.691 365.81,32.436 361.196,40.408 L344.5,69.326 C339.885,77.31 342.625,87.522 350.608,92.13 C358.592,96.749 368.798,94.008 373.412,86.022 L390.108,57.104 C394.723,49.12 391.984,38.908 384,34.3 Z" id="Path"></path>
            <path d="M161.391,419.87 C153.413,415.251 143.195,418 138.587,425.978 L121.891,454.896 C117.276,462.88 120.016,473.092 127.999,477.7 C135.983,482.319 146.189,479.579 150.803,471.592 L167.499,442.674 C172.114,434.69 169.375,424.478 161.391,419.87 Z" id="Path"></path>
            <path d="M256,100.174 C170.076,100.174 100.174,170.076 100.174,256 C100.174,341.924 170.076,411.826 256,411.826 C341.924,411.826 411.826,341.924 411.826,256 C411.826,170.076 341.924,100.174 256,100.174 Z M256,200.348 C225.316,200.348 200.348,225.316 200.348,256 C200.348,265.223 192.875,272.696 183.652,272.696 C174.429,272.696 166.956,265.223 166.956,256 C166.956,206.903 206.902,166.957 255.999,166.957 C265.222,166.957 272.695,174.43 272.695,183.653 C272.696,192.875 265.223,200.348 256,200.348 Z" id="Shape"></path>
        </g>
    </g>
</svg>